<svg width="1188" height="1012" viewBox="0 0 1188 1012" fill="none" xmlns="http://www.w3.org/2000/svg">
<rect x="2" y="2" width="1184" height="1008" rx="6" stroke="white" stroke-width="4" stroke-miterlimit="0"/>
<path d="M429.841 94.4545H419.528V65.3636H429.926C432.852 65.3636 435.371 65.946 437.483 67.1108C439.595 68.2661 441.219 69.928 442.355 72.0966C443.501 74.2651 444.074 76.8598 444.074 79.8807C444.074 82.911 443.501 85.5151 442.355 87.6932C441.219 89.8712 439.585 91.5426 437.455 92.7074C435.333 93.8721 432.795 94.4545 429.841 94.4545ZM425.679 89.1846H429.585C431.403 89.1846 432.933 88.8627 434.173 88.2187C435.423 87.5653 436.361 86.5568 436.986 85.1932C437.62 83.8201 437.938 82.0492 437.938 79.8807C437.938 77.731 437.62 75.9744 436.986 74.6108C436.361 73.2471 435.428 72.2434 434.188 71.5994C432.947 70.9555 431.418 70.6335 429.599 70.6335H425.679V89.1846ZM458.332 94.8523C456.211 94.8523 454.322 94.4877 452.665 93.7585C451.017 93.0199 449.715 92.0066 448.758 90.7187C447.812 89.4214 447.324 87.9252 447.295 86.2301H453.489C453.526 86.9403 453.758 87.5653 454.185 88.1051C454.62 88.6354 455.198 89.0473 455.918 89.3409C456.637 89.6345 457.447 89.7812 458.347 89.7812C459.284 89.7812 460.113 89.6155 460.832 89.2841C461.552 88.9526 462.116 88.4934 462.523 87.9062C462.93 87.3191 463.133 86.642 463.133 85.875C463.133 85.0985 462.916 84.4119 462.48 83.8153C462.054 83.2093 461.438 82.7358 460.633 82.3949C459.838 82.054 458.891 81.8835 457.793 81.8835H455.08V77.3665H457.793C458.721 77.3665 459.54 77.2055 460.25 76.8835C460.97 76.5615 461.528 76.1165 461.926 75.5483C462.324 74.9706 462.523 74.2983 462.523 73.5312C462.523 72.8021 462.348 72.1629 461.997 71.6136C461.656 71.0549 461.173 70.6193 460.548 70.3068C459.933 69.9943 459.213 69.8381 458.389 69.8381C457.556 69.8381 456.794 69.9896 456.102 70.2926C455.411 70.5862 454.857 71.0076 454.44 71.5568C454.024 72.106 453.801 72.75 453.773 73.4886H447.878C447.906 71.8125 448.384 70.3352 449.312 69.0568C450.241 67.7784 451.491 66.7793 453.062 66.0596C454.644 65.3305 456.429 64.9659 458.418 64.9659C460.425 64.9659 462.182 65.3305 463.687 66.0596C465.193 66.7888 466.363 67.7737 467.196 69.0142C468.039 70.2452 468.455 71.6278 468.446 73.1619C468.455 74.7907 467.949 76.1496 466.926 77.2386C465.913 78.3276 464.592 79.0189 462.963 79.3125V79.5398C465.103 79.8144 466.732 80.5577 467.849 81.7699C468.976 82.9725 469.535 84.4782 469.526 86.2869C469.535 87.9441 469.057 89.4167 468.091 90.7045C467.134 91.9924 465.813 93.0057 464.128 93.7443C462.442 94.4829 460.51 94.8523 458.332 94.8523ZM507.283 75.5483H501.061C500.947 74.7434 500.715 74.0284 500.365 73.4034C500.015 72.7689 499.565 72.2291 499.016 71.7841C498.466 71.339 497.832 70.9981 497.112 70.7613C496.402 70.5246 495.63 70.4062 494.797 70.4062C493.291 70.4062 491.98 70.7803 490.862 71.5284C489.745 72.267 488.878 73.3466 488.263 74.767C487.647 76.178 487.339 77.892 487.339 79.9091C487.339 81.9829 487.647 83.7254 488.263 85.1363C488.888 86.5473 489.759 87.6127 490.876 88.3324C491.994 89.0521 493.286 89.4119 494.754 89.4119C495.578 89.4119 496.34 89.303 497.041 89.0852C497.751 88.8674 498.381 88.5502 498.93 88.1335C499.48 87.7074 499.934 87.1913 500.294 86.5852C500.663 85.9791 500.919 85.2879 501.061 84.5113L507.283 84.5398C507.122 85.875 506.719 87.1629 506.075 88.4034C505.441 89.6345 504.584 90.7377 503.504 91.7131C502.434 92.679 501.156 93.446 499.669 94.0142C498.192 94.5729 496.52 94.8523 494.655 94.8523C492.06 94.8523 489.74 94.2651 487.695 93.0909C485.659 91.9167 484.049 90.2168 482.865 87.9915C481.691 85.7661 481.104 83.072 481.104 79.9091C481.104 76.7367 481.7 74.0379 482.893 71.8125C484.087 69.5871 485.706 67.892 487.751 66.7273C489.797 65.553 492.098 64.9659 494.655 64.9659C496.34 64.9659 497.903 65.2026 499.342 65.6761C500.791 66.1496 502.074 66.8409 503.192 67.75C504.309 68.6496 505.218 69.7528 505.919 71.0596C506.629 72.3665 507.084 73.8627 507.283 75.5483ZM516.751 81.8409V94.4545H510.699V65.3636H516.58V76.4858H516.836C517.328 75.1979 518.124 74.1894 519.222 73.4602C520.321 72.7216 521.699 72.3523 523.356 72.3523C524.871 72.3523 526.192 72.6837 527.319 73.3466C528.455 74 529.336 74.9422 529.961 76.1733C530.595 77.3949 530.908 78.8579 530.898 80.5625V94.4545H524.847V81.642C524.857 80.2973 524.516 79.2509 523.824 78.5028C523.143 77.7547 522.186 77.3807 520.955 77.3807C520.131 77.3807 519.402 77.5559 518.768 77.9062C518.143 78.2566 517.65 78.768 517.29 79.4403C516.94 80.1032 516.76 80.9034 516.751 81.8409ZM541.002 94.8665C539.61 94.8665 538.369 94.625 537.28 94.142C536.191 93.6496 535.33 92.9252 534.695 91.9687C534.07 91.0028 533.758 89.8002 533.758 88.3608C533.758 87.1487 533.98 86.1307 534.425 85.3068C534.87 84.4829 535.476 83.8201 536.243 83.3182C537.011 82.8163 537.882 82.4375 538.857 82.1818C539.842 81.9261 540.874 81.7462 541.954 81.642C543.223 81.5095 544.245 81.3863 545.022 81.2727C545.798 81.1496 546.362 80.9697 546.712 80.7329C547.063 80.4962 547.238 80.1458 547.238 79.6818V79.5966C547.238 78.697 546.954 78.0009 546.386 77.5085C545.827 77.0161 545.031 76.7699 543.999 76.7699C542.91 76.7699 542.044 77.0113 541.4 77.4943C540.756 77.9678 540.33 78.5644 540.121 79.2841L534.525 78.8295C534.809 77.5038 535.368 76.3579 536.201 75.392C537.034 74.4166 538.109 73.6685 539.425 73.1477C540.751 72.6174 542.285 72.3523 544.028 72.3523C545.24 72.3523 546.4 72.4943 547.508 72.7784C548.625 73.0625 549.615 73.5028 550.476 74.0994C551.348 74.696 552.034 75.4631 552.536 76.4006C553.038 77.3286 553.289 78.4413 553.289 79.7386V94.4545H547.55V91.429H547.38C547.029 92.1108 546.561 92.7121 545.974 93.2329C545.386 93.7443 544.681 94.1468 543.857 94.4403C543.033 94.7244 542.082 94.8665 541.002 94.8665ZM542.735 90.6903C543.625 90.6903 544.411 90.5151 545.093 90.1648C545.775 89.8049 546.31 89.322 546.698 88.7159C547.086 88.1098 547.28 87.4233 547.28 86.6562V84.3409C547.091 84.464 546.831 84.5776 546.499 84.6818C546.177 84.7765 545.813 84.8665 545.405 84.9517C544.998 85.0274 544.591 85.0985 544.184 85.1648C543.777 85.2216 543.407 85.2737 543.076 85.321C542.366 85.4252 541.745 85.5909 541.215 85.8182C540.685 86.0454 540.273 86.3532 539.979 86.7415C539.686 87.1202 539.539 87.5937 539.539 88.1619C539.539 88.9858 539.837 89.6155 540.434 90.0511C541.04 90.4773 541.807 90.6903 542.735 90.6903ZM557.104 94.4545V72.6363H562.97V76.4432H563.197C563.595 75.089 564.263 74.0663 565.2 73.375C566.138 72.6742 567.217 72.3238 568.439 72.3238C568.742 72.3238 569.068 72.3428 569.419 72.3807C569.769 72.4185 570.077 72.4706 570.342 72.5369V77.9062C570.058 77.821 569.665 77.7452 569.163 77.679C568.661 77.6127 568.202 77.5795 567.785 77.5795C566.895 77.5795 566.1 77.7737 565.399 78.1619C564.708 78.5407 564.158 79.071 563.751 79.7528C563.354 80.4346 563.155 81.2206 563.155 82.1108V94.4545H557.104ZM585.29 72.6363V77.1818H572.15V72.6363H585.29ZM575.133 67.4091H581.184V87.75C581.184 88.3087 581.27 88.7443 581.44 89.0568C581.611 89.3598 581.847 89.5729 582.15 89.696C582.463 89.8191 582.823 89.8807 583.23 89.8807C583.514 89.8807 583.798 89.857 584.082 89.8096C584.366 89.7528 584.584 89.7102 584.736 89.6818L585.687 94.1846C585.384 94.2793 584.958 94.3882 584.409 94.5113C583.86 94.6439 583.192 94.7244 582.406 94.7528C580.948 94.8096 579.669 94.6155 578.571 94.1704C577.482 93.7254 576.634 93.0341 576.028 92.0966C575.422 91.1591 575.124 89.9754 575.133 88.5454V67.4091ZM601.033 94.4545L595.096 72.6363H601.218L604.598 87.2954H604.797L608.32 72.6363H614.329L617.908 87.2102H618.093L621.417 72.6363H627.525L621.601 94.4545H615.195L611.445 80.7329H611.175L607.425 94.4545H601.033ZM629.873 94.4545V72.6363H635.924V94.4545H629.873ZM632.912 69.8238C632.013 69.8238 631.241 69.5256 630.597 68.929C629.963 68.3229 629.645 67.5985 629.645 66.7557C629.645 65.9223 629.963 65.2074 630.597 64.6108C631.241 64.0047 632.013 63.7017 632.912 63.7017C633.812 63.7017 634.579 64.0047 635.213 64.6108C635.857 65.2074 636.179 65.9223 636.179 66.7557C636.179 67.5985 635.857 68.3229 635.213 68.929C634.579 69.5256 633.812 69.8238 632.912 69.8238ZM651.496 72.6363V77.1818H638.357V72.6363H651.496ZM641.34 67.4091H647.391V87.75C647.391 88.3087 647.476 88.7443 647.647 89.0568C647.817 89.3598 648.054 89.5729 648.357 89.696C648.669 89.8191 649.029 89.8807 649.436 89.8807C649.721 89.8807 650.005 89.857 650.289 89.8096C650.573 89.7528 650.791 89.7102 650.942 89.6818L651.894 94.1846C651.591 94.2793 651.165 94.3882 650.615 94.5113C650.066 94.6439 649.399 94.7244 648.613 94.7528C647.154 94.8096 645.876 94.6155 644.777 94.1704C643.688 93.7254 642.841 93.0341 642.235 92.0966C641.629 91.1591 641.33 89.9754 641.34 88.5454V67.4091ZM661.078 81.8409V94.4545H655.027V65.3636H660.907V76.4858H661.163C661.655 75.1979 662.451 74.1894 663.549 73.4602C664.648 72.7216 666.026 72.3523 667.683 72.3523C669.198 72.3523 670.519 72.6837 671.646 73.3466C672.782 74 673.663 74.9422 674.288 76.1733C674.922 77.3949 675.235 78.8579 675.226 80.5625V94.4545H669.174V81.642C669.184 80.2973 668.843 79.2509 668.152 78.5028C667.47 77.7547 666.513 77.3807 665.282 77.3807C664.458 77.3807 663.729 77.5559 663.095 77.9062C662.47 78.2566 661.977 78.768 661.618 79.4403C661.267 80.1032 661.087 80.9034 661.078 81.8409ZM713.267 75.5483H707.045C706.931 74.7434 706.699 74.0284 706.349 73.4034C705.999 72.7689 705.549 72.2291 705 71.7841C704.45 71.339 703.816 70.9981 703.096 70.7613C702.386 70.5246 701.614 70.4062 700.781 70.4062C699.275 70.4062 697.964 70.7803 696.846 71.5284C695.729 72.267 694.862 73.3466 694.247 74.767C693.631 76.178 693.323 77.892 693.323 79.9091C693.323 81.9829 693.631 83.7254 694.247 85.1363C694.872 86.5473 695.743 87.6127 696.86 88.3324C697.978 89.0521 699.27 89.4119 700.738 89.4119C701.562 89.4119 702.324 89.303 703.025 89.0852C703.735 88.8674 704.365 88.5502 704.914 88.1335C705.464 87.7074 705.918 87.1913 706.278 86.5852C706.647 85.9791 706.903 85.2879 707.045 84.5113L713.267 84.5398C713.106 85.875 712.703 87.1629 712.059 88.4034C711.425 89.6345 710.568 90.7377 709.488 91.7131C708.418 92.679 707.14 93.446 705.653 94.0142C704.176 94.5729 702.504 94.8523 700.639 94.8523C698.044 94.8523 695.724 94.2651 693.679 93.0909C691.643 91.9167 690.033 90.2168 688.849 87.9915C687.675 85.7661 687.088 83.072 687.088 79.9091C687.088 76.7367 687.684 74.0379 688.877 71.8125C690.071 69.5871 691.69 67.892 693.735 66.7273C695.781 65.553 698.082 64.9659 700.639 64.9659C702.324 64.9659 703.887 65.2026 705.326 65.6761C706.775 66.1496 708.058 66.8409 709.176 67.75C710.293 68.6496 711.202 69.7528 711.903 71.0596C712.613 72.3665 713.068 73.8627 713.267 75.5483ZM722.905 94.8665C721.513 94.8665 720.273 94.625 719.184 94.142C718.094 93.6496 717.233 92.9252 716.598 91.9687C715.973 91.0028 715.661 89.8002 715.661 88.3608C715.661 87.1487 715.883 86.1307 716.328 85.3068C716.773 84.4829 717.38 83.8201 718.147 83.3182C718.914 82.8163 719.785 82.4375 720.76 82.1818C721.745 81.9261 722.777 81.7462 723.857 81.642C725.126 81.5095 726.148 81.3863 726.925 81.2727C727.702 81.1496 728.265 80.9697 728.615 80.7329C728.966 80.4962 729.141 80.1458 729.141 79.6818V79.5966C729.141 78.697 728.857 78.0009 728.289 77.5085C727.73 77.0161 726.934 76.7699 725.902 76.7699C724.813 76.7699 723.947 77.0113 723.303 77.4943C722.659 77.9678 722.233 78.5644 722.024 79.2841L716.428 78.8295C716.712 77.5038 717.271 76.3579 718.104 75.392C718.937 74.4166 720.012 73.6685 721.328 73.1477C722.654 72.6174 724.188 72.3523 725.931 72.3523C727.143 72.3523 728.303 72.4943 729.411 72.7784C730.528 73.0625 731.518 73.5028 732.38 74.0994C733.251 74.696 733.937 75.4631 734.439 76.4006C734.941 77.3286 735.192 78.4413 735.192 79.7386V94.4545H729.453V91.429H729.283C728.933 92.1108 728.464 92.7121 727.877 93.2329C727.29 93.7443 726.584 94.1468 725.76 94.4403C724.936 94.7244 723.985 94.8665 722.905 94.8665ZM724.638 90.6903C725.528 90.6903 726.314 90.5151 726.996 90.1648C727.678 89.8049 728.213 89.322 728.601 88.7159C728.989 88.1098 729.184 87.4233 729.184 86.6562V84.3409C728.994 84.464 728.734 84.5776 728.402 84.6818C728.08 84.7765 727.716 84.8665 727.309 84.9517C726.901 85.0274 726.494 85.0985 726.087 85.1648C725.68 85.2216 725.31 85.2737 724.979 85.321C724.269 85.4252 723.648 85.5909 723.118 85.8182C722.588 86.0454 722.176 86.3532 721.882 86.7415C721.589 87.1202 721.442 87.5937 721.442 88.1619C721.442 88.9858 721.74 89.6155 722.337 90.0511C722.943 90.4773 723.71 90.6903 724.638 90.6903ZM745.058 81.8409V94.4545H739.007V72.6363H744.774V76.4858H745.029C745.512 75.2168 746.322 74.2131 747.458 73.4744C748.595 72.7263 749.973 72.3523 751.592 72.3523C753.107 72.3523 754.428 72.6837 755.555 73.3466C756.682 74.0095 757.558 74.9564 758.183 76.1875C758.808 77.4091 759.12 78.8674 759.12 80.5625V94.4545H753.069V81.642C753.079 80.3068 752.738 79.2651 752.046 78.517C751.355 77.7595 750.403 77.3807 749.191 77.3807C748.377 77.3807 747.657 77.5559 747.032 77.9062C746.417 78.2566 745.934 78.768 745.583 79.4403C745.242 80.1032 745.067 80.9034 745.058 81.8409ZM782.569 72.6363L774.941 94.4545H768.123L760.495 72.6363H766.887L771.419 88.2471H771.646L776.163 72.6363H782.569ZM790.421 94.8665C789.029 94.8665 787.789 94.625 786.7 94.142C785.611 93.6496 784.749 92.9252 784.115 91.9687C783.49 91.0028 783.177 89.8002 783.177 88.3608C783.177 87.1487 783.4 86.1307 783.845 85.3068C784.29 84.4829 784.896 83.8201 785.663 83.3182C786.43 82.8163 787.301 82.4375 788.276 82.1818C789.261 81.9261 790.294 81.7462 791.373 81.642C792.642 81.5095 793.665 81.3863 794.441 81.2727C795.218 81.1496 795.781 80.9697 796.132 80.7329C796.482 80.4962 796.657 80.1458 796.657 79.6818V79.5966C796.657 78.697 796.373 78.0009 795.805 77.5085C795.246 77.0161 794.451 76.7699 793.419 76.7699C792.33 76.7699 791.463 77.0113 790.819 77.4943C790.175 77.9678 789.749 78.5644 789.541 79.2841L783.944 78.8295C784.228 77.5038 784.787 76.3579 785.62 75.392C786.454 74.4166 787.528 73.6685 788.845 73.1477C790.17 72.6174 791.705 72.3523 793.447 72.3523C794.659 72.3523 795.819 72.4943 796.927 72.7784C798.044 73.0625 799.034 73.5028 799.896 74.0994C800.767 74.696 801.454 75.4631 801.955 76.4006C802.457 77.3286 802.708 78.4413 802.708 79.7386V94.4545H796.97V91.429H796.799C796.449 92.1108 795.98 92.7121 795.393 93.2329C794.806 93.7443 794.1 94.1468 793.276 94.4403C792.453 94.7244 791.501 94.8665 790.421 94.8665ZM792.154 90.6903C793.044 90.6903 793.83 90.5151 794.512 90.1648C795.194 89.8049 795.729 89.322 796.117 88.7159C796.506 88.1098 796.7 87.4233 796.7 86.6562V84.3409C796.51 84.464 796.25 84.5776 795.919 84.6818C795.597 84.7765 795.232 84.8665 794.825 84.9517C794.418 85.0274 794.01 85.0985 793.603 85.1648C793.196 85.2216 792.827 85.2737 792.495 85.321C791.785 85.4252 791.165 85.5909 790.634 85.8182C790.104 86.0454 789.692 86.3532 789.399 86.7415C789.105 87.1202 788.958 87.5937 788.958 88.1619C788.958 88.9858 789.257 89.6155 789.853 90.0511C790.459 90.4773 791.226 90.6903 792.154 90.6903ZM824.676 78.8579L819.137 79.1988C819.042 78.7254 818.838 78.2992 818.526 77.9204C818.213 77.5322 817.801 77.2244 817.29 76.9971C816.788 76.7604 816.187 76.642 815.486 76.642C814.548 76.642 813.758 76.8409 813.114 77.2386C812.47 77.6269 812.148 78.1477 812.148 78.8011C812.148 79.322 812.356 79.7623 812.773 80.1221C813.19 80.482 813.905 80.7708 814.918 80.9886L818.867 81.7841C820.988 82.2197 822.569 82.9204 823.611 83.8863C824.653 84.8523 825.173 86.1212 825.173 87.6932C825.173 89.1231 824.752 90.3778 823.909 91.4574C823.076 92.5369 821.93 93.3797 820.472 93.9858C819.023 94.5824 817.351 94.8807 815.458 94.8807C812.569 94.8807 810.268 94.2793 808.554 93.0767C806.85 91.8646 805.851 90.2168 805.557 88.1335L811.509 87.821C811.689 88.7017 812.124 89.374 812.816 89.8381C813.507 90.2926 814.392 90.5199 815.472 90.5199C816.532 90.5199 817.385 90.3163 818.029 89.9091C818.682 89.4924 819.013 88.9574 819.023 88.304C819.013 87.7547 818.781 87.3049 818.327 86.9545C817.872 86.5947 817.172 86.3201 816.225 86.1307L812.446 85.3778C810.316 84.9517 808.729 84.2131 807.688 83.1619C806.655 82.1108 806.139 80.7708 806.139 79.142C806.139 77.7405 806.518 76.5331 807.276 75.5199C808.043 74.5066 809.118 73.7254 810.5 73.1761C811.892 72.6269 813.521 72.3523 815.387 72.3523C818.142 72.3523 820.311 72.9346 821.892 74.0994C823.483 75.2642 824.411 76.8504 824.676 78.8579Z" fill="white"/>
<rect x="290" y="254" width="489" height="558.857" rx="6" stroke="white" stroke-width="4" stroke-miterlimit="0" stroke-linecap="round"/>
<path d="M228.828 363.172C227.266 361.609 224.734 361.609 223.172 363.172L197.716 388.627C196.154 390.19 196.154 392.722 197.716 394.284C199.278 395.846 201.81 395.846 203.373 394.284L226 371.657L248.627 394.284C250.19 395.846 252.722 395.846 254.284 394.284C255.846 392.722 255.846 390.19 254.284 388.627L228.828 363.172ZM222 846C222 848.209 223.791 850 226 850C228.209 850 230 848.209 230 846H222ZM222 366V846H230V366H222Z" fill="white"/>
<path d="M759.355 848.828C760.917 847.266 760.917 844.734 759.355 843.172L733.899 817.716C732.337 816.154 729.804 816.154 728.242 817.716C726.68 819.278 726.68 821.81 728.242 823.373L750.87 846L728.242 868.627C726.68 870.19 726.68 872.722 728.242 874.284C729.804 875.846 732.337 875.846 733.899 874.284L759.355 848.828ZM226 842C223.791 842 222 843.791 222 846C222 848.209 223.791 850 226 850V842ZM756.526 842H226V850H756.526V842Z" fill="white"/>
<path d="M375.776 361.519H375.776" stroke="#0D99FF" stroke-width="8" stroke-linecap="round" stroke-linejoin="round"/>
<path d="M511.836 361.519H511.836" stroke="#0D99FF" stroke-width="8" stroke-linecap="round" stroke-linejoin="round"/>
<path d="M443.807 412.056H443.807" stroke="#0D99FF" stroke-width="8" stroke-linecap="round" stroke-linejoin="round"/>
<path d="M387.438 520.903H387.439" stroke="#0D99FF" stroke-width="8" stroke-linecap="round" stroke-linejoin="round"/>
<path d="M375.776 439.267H375.776" stroke="#0D99FF" stroke-width="8" stroke-linecap="round" stroke-linejoin="round"/>
<path d="M482.681 493.691H482.681" stroke="#0D99FF" stroke-width="8" stroke-linecap="round" stroke-linejoin="round"/>
<path d="M519.61 433.436H519.61" stroke="#0D99FF" stroke-width="8" stroke-linecap="round" stroke-linejoin="round"/>
<path d="M589.584 406.224H589.584" stroke="#0D99FF" stroke-width="8" stroke-linecap="round" stroke-linejoin="round"/>
<path d="M601.246 503.41H601.246" stroke="#0D99FF" stroke-width="8" stroke-linecap="round" stroke-linejoin="round"/>
<path d="M430.2 600.595H430.2" stroke="#0D99FF" stroke-width="8" stroke-linecap="round" stroke-linejoin="round"/>
<path d="M383.552 618.088H383.552" stroke="#0D99FF" stroke-width="8" stroke-linecap="round" stroke-linejoin="round"/>
<path d="M562.372 575.327H564.316" stroke="#0D99FF" stroke-width="8" stroke-linecap="round" stroke-linejoin="round"/>
<path d="M488.512 542.284H488.512" stroke="#0D99FF" stroke-width="8" stroke-linecap="round" stroke-linejoin="round"/>
<path d="M506.005 621.975H506.005" stroke="#0D99FF" stroke-width="8" stroke-linecap="round" stroke-linejoin="round"/>
<path d="M472.962 701.667H472.962" stroke="#0D99FF" stroke-width="8" stroke-linecap="round" stroke-linejoin="round"/>
<path d="M644.008 744.429C644.008 745.077 644.008 745.725 644.008 746.372" stroke="#0D99FF" stroke-width="8" stroke-linecap="round" stroke-linejoin="round"/>
<path d="M548.767 707.498H548.767" stroke="#0D99FF" stroke-width="8" stroke-linecap="round" stroke-linejoin="round"/>
<path d="M640.12 635.581H640.12" stroke="#0D99FF" stroke-width="8" stroke-linecap="round" stroke-linejoin="round"/>
<path d="M574.034 656.962H574.034" stroke="#0D99FF" stroke-width="8" stroke-linecap="round" stroke-linejoin="round"/>
<path d="M593.472 701.667H593.472" stroke="#0D99FF" stroke-width="8" stroke-linecap="round" stroke-linejoin="round"/>
<path d="M412.707 666.681H412.707" stroke="#0D99FF" stroke-width="8" stroke-linecap="round" stroke-linejoin="round"/>
<path d="M387.438 742.485H387.439" stroke="#0D99FF" stroke-width="8" stroke-linecap="round" stroke-linejoin="round"/>
<path d="M447.693 754.147H447.693" stroke="#0D99FF" stroke-width="8" stroke-linecap="round" stroke-linejoin="round"/>
<path d="M539.048 759.978H539.048" stroke="#0D99FF" stroke-width="8" stroke-linecap="round" stroke-linejoin="round"/>
<path d="M358.283 690.005H358.283" stroke="#0D99FF" stroke-width="8" stroke-linecap="round" stroke-linejoin="round"/>
<path d="M605.134 336.251H605.134" stroke="#0D99FF" stroke-width="8" stroke-linecap="round" stroke-linejoin="round"/>
<path d="M471.019 324.589H471.019" stroke="#0D99FF" stroke-width="8" stroke-linecap="round" stroke-linejoin="round"/>
<path d="M439.919 312.927H439.919" stroke="#0D99FF" stroke-width="8" stroke-linecap="round" stroke-linejoin="round"/>
<path d="M577.922 310.983H577.922" stroke="#0D99FF" stroke-width="8" stroke-linecap="round" stroke-linejoin="round"/>
<path d="M657.613 410.112H657.613" stroke="#0D99FF" stroke-width="8" stroke-linecap="round" stroke-linejoin="round"/>
<path d="M542.936 528.678C542.936 528.03 542.936 527.382 542.936 526.734" stroke="#0D99FF" stroke-width="8" stroke-linecap="round" stroke-linejoin="round"/>
<path d="M546.822 472.31H546.822" stroke="#0D99FF" stroke-width="8" stroke-linecap="round" stroke-linejoin="round"/>
<path d="M441.862 460.648H441.862" stroke="#0D99FF" stroke-width="8" stroke-linecap="round" stroke-linejoin="round"/>
<path d="M428.257 548.115H428.257" stroke="#0D99FF" stroke-width="8" stroke-linecap="round" stroke-linejoin="round"/>
<path d="M669.275 550.058H669.275" stroke="#0D99FF" stroke-width="8" stroke-linecap="round" stroke-linejoin="round"/>
<path d="M649.839 468.423H649.839" stroke="#0D99FF" stroke-width="8" stroke-linecap="round" stroke-linejoin="round"/>
<path d="M630.401 569.495H630.401" stroke="#0D99FF" stroke-width="8" stroke-linecap="round" stroke-linejoin="round"/>
<path d="M603.189 548.115H603.19" stroke="#0D99FF" stroke-width="8" stroke-linecap="round" stroke-linejoin="round"/>
<path d="M682.882 623.919H684.826" stroke="#0D99FF" stroke-width="8" stroke-linecap="round" stroke-linejoin="round"/>
<path d="M708.149 709.442H708.15" stroke="#0D99FF" stroke-width="8" stroke-linecap="round" stroke-linejoin="round"/>
<rect x="424" y="215" width="489" height="558.857" rx="6" stroke="white" stroke-width="4" stroke-miterlimit="0" stroke-linecap="round"/>
<path d="M542.936 526.734V530.621" stroke="#FFCD29" stroke-width="8" stroke-linecap="round" stroke-linejoin="round"/>
<path d="M599.303 505.353C599.303 501.023 600.212 501.921 603.19 503.41" stroke="#FFCD29" stroke-width="8" stroke-linecap="round" stroke-linejoin="round"/>
<path d="M546.822 470.367V476.198" stroke="#FFCD29" stroke-width="8" stroke-linecap="round" stroke-linejoin="round"/>
<path d="M482.681 495.635H482.681" stroke="#FFCD29" stroke-width="8" stroke-linecap="round" stroke-linejoin="round"/>
<path d="M519.61 435.38H519.61" stroke="#FFCD29" stroke-width="8" stroke-linecap="round" stroke-linejoin="round"/>
<circle cx="543" cy="494" r="88" fill="#FFA629" fill-opacity="0.5"/>
<path d="M457.08 182.545C457.08 184.409 456.739 186.011 456.057 187.352C455.375 188.687 454.44 189.716 453.253 190.437C452.071 191.153 450.727 191.511 449.222 191.511C447.71 191.511 446.361 191.153 445.173 190.437C443.991 189.716 443.06 188.685 442.378 187.344C441.696 186.003 441.355 184.403 441.355 182.545C441.355 180.682 441.696 179.082 442.378 177.747C443.06 176.406 443.991 175.378 445.173 174.662C446.361 173.94 447.71 173.58 449.222 173.58C450.727 173.58 452.071 173.94 453.253 174.662C454.44 175.378 455.375 176.406 456.057 177.747C456.739 179.082 457.08 180.682 457.08 182.545ZM454.472 182.545C454.472 181.125 454.241 179.929 453.781 178.957C453.327 177.98 452.702 177.241 451.906 176.741C451.116 176.236 450.222 175.983 449.222 175.983C448.216 175.983 447.318 176.236 446.528 176.741C445.739 177.241 445.114 177.98 444.653 178.957C444.199 179.929 443.972 181.125 443.972 182.545C443.972 183.966 444.199 185.165 444.653 186.142C445.114 187.114 445.739 187.852 446.528 188.358C447.318 188.858 448.216 189.108 449.222 189.108C450.222 189.108 451.116 188.858 451.906 188.358C452.702 187.852 453.327 187.114 453.781 186.142C454.241 185.165 454.472 183.966 454.472 182.545ZM470.901 178.182L466.154 191.273H463.427L458.671 178.182H461.407L464.722 188.256H464.859L468.165 178.182H470.901ZM478.037 191.537C476.747 191.537 475.636 191.261 474.704 190.71C473.778 190.153 473.062 189.372 472.557 188.366C472.057 187.355 471.807 186.17 471.807 184.812C471.807 183.472 472.057 182.29 472.557 181.267C473.062 180.244 473.767 179.446 474.67 178.872C475.579 178.298 476.642 178.011 477.858 178.011C478.597 178.011 479.312 178.134 480.006 178.378C480.699 178.622 481.321 179.006 481.872 179.528C482.423 180.051 482.858 180.73 483.176 181.565C483.494 182.395 483.653 183.403 483.653 184.591V185.494H473.247V183.585H481.156C481.156 182.915 481.02 182.321 480.747 181.804C480.474 181.281 480.091 180.869 479.597 180.568C479.108 180.267 478.534 180.116 477.875 180.116C477.159 180.116 476.534 180.293 476 180.645C475.472 180.991 475.062 181.446 474.773 182.009C474.489 182.565 474.347 183.17 474.347 183.824V185.315C474.347 186.19 474.5 186.935 474.807 187.548C475.119 188.162 475.554 188.631 476.111 188.955C476.668 189.273 477.318 189.432 478.062 189.432C478.545 189.432 478.986 189.364 479.383 189.227C479.781 189.085 480.125 188.875 480.415 188.597C480.704 188.318 480.926 187.974 481.079 187.565L483.491 188C483.298 188.71 482.952 189.332 482.452 189.866C481.957 190.395 481.335 190.807 480.585 191.102C479.841 191.392 478.991 191.537 478.037 191.537ZM486.025 191.273V178.182H488.488V180.261H488.624C488.863 179.557 489.283 179.003 489.886 178.599C490.494 178.19 491.181 177.986 491.948 177.986C492.107 177.986 492.295 177.991 492.511 178.003C492.732 178.014 492.905 178.028 493.03 178.045V180.483C492.928 180.455 492.746 180.423 492.485 180.389C492.224 180.349 491.962 180.33 491.701 180.33C491.099 180.33 490.562 180.457 490.09 180.713C489.624 180.963 489.255 181.312 488.982 181.761C488.709 182.205 488.573 182.71 488.573 183.278V191.273H486.025ZM497.328 173.818V191.273H494.78V173.818H497.328ZM504.11 191.562C503.28 191.562 502.53 191.409 501.86 191.102C501.189 190.79 500.658 190.338 500.266 189.747C499.88 189.156 499.687 188.432 499.687 187.574C499.687 186.835 499.829 186.227 500.113 185.75C500.397 185.273 500.78 184.895 501.263 184.616C501.746 184.338 502.286 184.128 502.883 183.986C503.479 183.844 504.087 183.736 504.707 183.662C505.491 183.571 506.127 183.497 506.616 183.44C507.104 183.378 507.459 183.278 507.681 183.142C507.903 183.006 508.013 182.784 508.013 182.477V182.418C508.013 181.673 507.803 181.097 507.383 180.687C506.968 180.278 506.349 180.074 505.525 180.074C504.667 180.074 503.991 180.264 503.496 180.645C503.008 181.02 502.67 181.437 502.482 181.898L500.087 181.352C500.371 180.557 500.786 179.915 501.332 179.426C501.883 178.932 502.516 178.574 503.232 178.352C503.948 178.125 504.701 178.011 505.491 178.011C506.013 178.011 506.567 178.074 507.153 178.199C507.743 178.318 508.295 178.54 508.806 178.864C509.323 179.187 509.746 179.651 510.076 180.253C510.405 180.849 510.57 181.625 510.57 182.58V191.273H508.082V189.483H507.979C507.814 189.812 507.567 190.136 507.238 190.455C506.908 190.773 506.485 191.037 505.968 191.247C505.451 191.457 504.832 191.562 504.11 191.562ZM504.664 189.517C505.368 189.517 505.971 189.378 506.471 189.099C506.976 188.821 507.36 188.457 507.621 188.009C507.888 187.554 508.022 187.068 508.022 186.551V184.864C507.931 184.955 507.755 185.04 507.493 185.119C507.238 185.193 506.945 185.259 506.616 185.315C506.286 185.366 505.965 185.415 505.653 185.46C505.34 185.5 505.079 185.534 504.868 185.562C504.374 185.625 503.922 185.73 503.513 185.878C503.11 186.026 502.786 186.239 502.542 186.517C502.303 186.79 502.184 187.153 502.184 187.608C502.184 188.239 502.417 188.716 502.883 189.04C503.349 189.358 503.942 189.517 504.664 189.517ZM514.65 196.182C514.27 196.182 513.923 196.151 513.611 196.088C513.298 196.031 513.065 195.969 512.912 195.901L513.525 193.812C513.991 193.937 514.406 193.991 514.77 193.974C515.133 193.957 515.454 193.821 515.733 193.565C516.017 193.31 516.267 192.892 516.483 192.312L516.798 191.443L512.008 178.182H514.736L518.051 188.341H518.187L521.503 178.182H524.238L518.844 193.02C518.594 193.702 518.275 194.278 517.889 194.75C517.503 195.227 517.042 195.585 516.508 195.824C515.974 196.062 515.355 196.182 514.65 196.182ZM532.814 182.545C532.814 180.409 533.096 178.443 533.658 176.648C534.221 174.852 535.042 173.196 536.121 171.679H538.456C538.036 172.241 537.644 172.932 537.28 173.75C536.917 174.568 536.598 175.466 536.326 176.443C536.053 177.415 535.84 178.423 535.687 179.469C535.533 180.509 535.456 181.534 535.456 182.545C535.456 183.898 535.59 185.267 535.857 186.653C536.124 188.04 536.485 189.327 536.939 190.514C537.394 191.702 537.9 192.67 538.456 193.42H536.121C535.042 191.903 534.221 190.247 533.658 188.452C533.096 186.656 532.814 184.687 532.814 182.545ZM555.389 179.494H552.73C552.628 178.926 552.437 178.426 552.159 177.994C551.88 177.562 551.539 177.196 551.136 176.895C550.733 176.594 550.281 176.366 549.781 176.213C549.287 176.06 548.761 175.983 548.204 175.983C547.199 175.983 546.298 176.236 545.503 176.741C544.713 177.247 544.088 177.989 543.628 178.966C543.173 179.943 542.946 181.136 542.946 182.545C542.946 183.966 543.173 185.165 543.628 186.142C544.088 187.119 544.716 187.858 545.511 188.358C546.307 188.858 547.201 189.108 548.196 189.108C548.747 189.108 549.27 189.034 549.764 188.886C550.264 188.733 550.716 188.509 551.119 188.213C551.522 187.918 551.863 187.557 552.142 187.131C552.426 186.699 552.622 186.205 552.73 185.648L555.389 185.656C555.247 186.514 554.971 187.304 554.562 188.026C554.159 188.741 553.639 189.361 553.003 189.884C552.372 190.401 551.65 190.801 550.838 191.085C550.025 191.369 549.139 191.511 548.179 191.511C546.667 191.511 545.321 191.153 544.139 190.437C542.957 189.716 542.025 188.685 541.343 187.344C540.667 186.003 540.329 184.403 540.329 182.545C540.329 180.682 540.67 179.082 541.352 177.747C542.034 176.406 542.966 175.378 544.147 174.662C545.329 173.94 546.673 173.58 548.179 173.58C549.105 173.58 549.968 173.713 550.77 173.98C551.576 174.241 552.301 174.628 552.943 175.139C553.585 175.645 554.116 176.264 554.537 176.997C554.957 177.724 555.241 178.557 555.389 179.494ZM561.689 191.562C560.86 191.562 560.11 191.409 559.439 191.102C558.769 190.79 558.238 190.338 557.846 189.747C557.459 189.156 557.266 188.432 557.266 187.574C557.266 186.835 557.408 186.227 557.692 185.75C557.976 185.273 558.36 184.895 558.843 184.616C559.326 184.338 559.865 184.128 560.462 183.986C561.059 183.844 561.667 183.736 562.286 183.662C563.07 183.571 563.706 183.497 564.195 183.44C564.684 183.378 565.039 183.278 565.26 183.142C565.482 183.006 565.593 182.784 565.593 182.477V182.418C565.593 181.673 565.382 181.097 564.962 180.687C564.547 180.278 563.928 180.074 563.104 180.074C562.246 180.074 561.57 180.264 561.076 180.645C560.587 181.02 560.249 181.437 560.061 181.898L557.667 181.352C557.951 180.557 558.365 179.915 558.911 179.426C559.462 178.932 560.096 178.574 560.811 178.352C561.527 178.125 562.28 178.011 563.07 178.011C563.593 178.011 564.147 178.074 564.732 178.199C565.323 178.318 565.874 178.54 566.385 178.864C566.902 179.187 567.326 179.651 567.655 180.253C567.985 180.849 568.15 181.625 568.15 182.58V191.273H565.661V189.483H565.559C565.394 189.812 565.147 190.136 564.817 190.455C564.488 190.773 564.064 191.037 563.547 191.247C563.03 191.457 562.411 191.562 561.689 191.562ZM562.243 189.517C562.948 189.517 563.55 189.378 564.05 189.099C564.556 188.821 564.939 188.457 565.201 188.009C565.468 187.554 565.601 187.068 565.601 186.551V184.864C565.51 184.955 565.334 185.04 565.073 185.119C564.817 185.193 564.525 185.259 564.195 185.315C563.865 185.366 563.544 185.415 563.232 185.46C562.919 185.5 562.658 185.534 562.448 185.562C561.953 185.625 561.502 185.73 561.093 185.878C560.689 186.026 560.365 186.239 560.121 186.517C559.882 186.79 559.763 187.153 559.763 187.608C559.763 188.239 559.996 188.716 560.462 189.04C560.928 189.358 561.522 189.517 562.243 189.517ZM573.636 183.5V191.273H571.088V178.182H573.534V180.312H573.696C573.997 179.619 574.468 179.062 575.11 178.642C575.758 178.222 576.573 178.011 577.556 178.011C578.448 178.011 579.23 178.199 579.9 178.574C580.571 178.943 581.091 179.494 581.46 180.227C581.829 180.96 582.014 181.866 582.014 182.946V191.273H579.466V183.253C579.466 182.304 579.218 181.562 578.724 181.028C578.23 180.489 577.551 180.219 576.687 180.219C576.096 180.219 575.571 180.347 575.11 180.602C574.656 180.858 574.295 181.233 574.028 181.727C573.767 182.216 573.636 182.807 573.636 183.5ZM595.706 178.182L590.958 191.273H588.231L583.475 178.182H586.211L589.527 188.256H589.663L592.97 178.182H595.706ZM601.079 191.562C600.25 191.562 599.5 191.409 598.829 191.102C598.159 190.79 597.627 190.338 597.235 189.747C596.849 189.156 596.656 188.432 596.656 187.574C596.656 186.835 596.798 186.227 597.082 185.75C597.366 185.273 597.75 184.895 598.233 184.616C598.715 184.338 599.255 184.128 599.852 183.986C600.448 183.844 601.056 183.736 601.676 183.662C602.46 183.571 603.096 183.497 603.585 183.44C604.073 183.378 604.429 183.278 604.65 183.142C604.872 183.006 604.983 182.784 604.983 182.477V182.418C604.983 181.673 604.772 181.097 604.352 180.687C603.937 180.278 603.318 180.074 602.494 180.074C601.636 180.074 600.96 180.264 600.465 180.645C599.977 181.02 599.639 181.437 599.451 181.898L597.056 181.352C597.34 180.557 597.755 179.915 598.301 179.426C598.852 178.932 599.485 178.574 600.201 178.352C600.917 178.125 601.67 178.011 602.46 178.011C602.983 178.011 603.536 178.074 604.122 178.199C604.713 178.318 605.264 178.54 605.775 178.864C606.292 179.187 606.715 179.651 607.045 180.253C607.375 180.849 607.539 181.625 607.539 182.58V191.273H605.051V189.483H604.948C604.784 189.812 604.536 190.136 604.207 190.455C603.877 190.773 603.454 191.037 602.937 191.247C602.42 191.457 601.801 191.562 601.079 191.562ZM601.633 189.517C602.338 189.517 602.94 189.378 603.44 189.099C603.946 188.821 604.329 188.457 604.59 188.009C604.858 187.554 604.991 187.068 604.991 186.551V184.864C604.9 184.955 604.724 185.04 604.463 185.119C604.207 185.193 603.914 185.259 603.585 185.315C603.255 185.366 602.934 185.415 602.622 185.46C602.309 185.5 602.048 185.534 601.838 185.562C601.343 185.625 600.892 185.73 600.483 185.878C600.079 186.026 599.755 186.239 599.511 186.517C599.272 186.79 599.153 187.153 599.153 187.608C599.153 188.239 599.386 188.716 599.852 189.04C600.318 189.358 600.911 189.517 601.633 189.517ZM620.287 181.378L617.978 181.787C617.881 181.491 617.728 181.21 617.517 180.943C617.313 180.676 617.034 180.457 616.682 180.287C616.33 180.116 615.889 180.031 615.361 180.031C614.639 180.031 614.037 180.193 613.554 180.517C613.071 180.835 612.83 181.247 612.83 181.753C612.83 182.19 612.992 182.543 613.316 182.81C613.639 183.077 614.162 183.295 614.884 183.466L616.963 183.943C618.168 184.222 619.066 184.651 619.656 185.23C620.247 185.81 620.543 186.562 620.543 187.489C620.543 188.273 620.316 188.972 619.861 189.585C619.412 190.193 618.784 190.67 617.978 191.017C617.176 191.364 616.247 191.537 615.191 191.537C613.725 191.537 612.529 191.224 611.603 190.599C610.676 189.969 610.108 189.074 609.898 187.915L612.361 187.54C612.514 188.182 612.83 188.668 613.307 188.997C613.784 189.321 614.406 189.483 615.174 189.483C616.009 189.483 616.676 189.31 617.176 188.963C617.676 188.611 617.926 188.182 617.926 187.676C617.926 187.267 617.773 186.923 617.466 186.645C617.165 186.366 616.702 186.156 616.077 186.014L613.861 185.528C612.639 185.25 611.736 184.807 611.151 184.199C610.571 183.591 610.281 182.821 610.281 181.889C610.281 181.116 610.497 180.44 610.929 179.861C611.361 179.281 611.958 178.83 612.719 178.506C613.48 178.176 614.353 178.011 615.335 178.011C616.75 178.011 617.864 178.318 618.676 178.932C619.489 179.54 620.026 180.355 620.287 181.378ZM627.789 184.028C627.789 186.17 627.508 188.139 626.946 189.935C626.383 191.73 625.562 193.386 624.482 194.903H622.147C622.568 194.341 622.96 193.651 623.323 192.832C623.687 192.014 624.005 191.119 624.278 190.148C624.551 189.17 624.764 188.159 624.917 187.114C625.071 186.068 625.147 185.04 625.147 184.028C625.147 182.682 625.014 181.315 624.747 179.929C624.48 178.543 624.119 177.256 623.664 176.068C623.21 174.881 622.704 173.912 622.147 173.162H624.482C625.562 174.679 626.383 176.335 626.946 178.131C627.508 179.926 627.789 181.892 627.789 184.028Z" fill="white"/>
<path d="M260.415 215.494H257.756C257.653 214.926 257.463 214.426 257.185 213.994C256.906 213.562 256.565 213.196 256.162 212.895C255.759 212.594 255.307 212.366 254.807 212.213C254.313 212.06 253.787 211.983 253.23 211.983C252.224 211.983 251.324 212.236 250.528 212.741C249.739 213.247 249.114 213.989 248.653 214.966C248.199 215.943 247.972 217.136 247.972 218.545C247.972 219.966 248.199 221.165 248.653 222.142C249.114 223.119 249.741 223.858 250.537 224.358C251.332 224.858 252.227 225.108 253.222 225.108C253.773 225.108 254.295 225.034 254.79 224.886C255.29 224.733 255.741 224.509 256.145 224.213C256.548 223.918 256.889 223.557 257.168 223.131C257.452 222.699 257.648 222.205 257.756 221.648L260.415 221.656C260.273 222.514 259.997 223.304 259.588 224.026C259.185 224.741 258.665 225.361 258.028 225.884C257.398 226.401 256.676 226.801 255.864 227.085C255.051 227.369 254.165 227.511 253.205 227.511C251.693 227.511 250.347 227.153 249.165 226.437C247.983 225.716 247.051 224.685 246.369 223.344C245.693 222.003 245.355 220.403 245.355 218.545C245.355 216.682 245.696 215.082 246.378 213.747C247.06 212.406 247.991 211.378 249.173 210.662C250.355 209.94 251.699 209.58 253.205 209.58C254.131 209.58 254.994 209.713 255.795 209.98C256.602 210.241 257.327 210.628 257.969 211.139C258.611 211.645 259.142 212.264 259.562 212.997C259.983 213.724 260.267 214.557 260.415 215.494ZM265.454 219.5V227.273H262.906V209.818H265.42V216.312H265.582C265.888 215.608 266.357 215.048 266.988 214.633C267.619 214.219 268.442 214.011 269.459 214.011C270.357 214.011 271.141 214.196 271.812 214.565C272.488 214.935 273.011 215.486 273.38 216.219C273.755 216.946 273.942 217.855 273.942 218.946V227.273H271.394V219.253C271.394 218.293 271.147 217.548 270.653 217.02C270.158 216.486 269.471 216.219 268.59 216.219C267.988 216.219 267.448 216.347 266.971 216.602C266.499 216.858 266.127 217.233 265.854 217.727C265.587 218.216 265.454 218.807 265.454 219.5ZM280.697 227.562C279.867 227.562 279.117 227.409 278.447 227.102C277.776 226.79 277.245 226.338 276.853 225.747C276.467 225.156 276.273 224.432 276.273 223.574C276.273 222.835 276.415 222.227 276.7 221.75C276.984 221.273 277.367 220.895 277.85 220.616C278.333 220.338 278.873 220.128 279.469 219.986C280.066 219.844 280.674 219.736 281.293 219.662C282.077 219.571 282.714 219.497 283.202 219.44C283.691 219.378 284.046 219.278 284.268 219.142C284.489 219.006 284.6 218.784 284.6 218.477V218.418C284.6 217.673 284.39 217.097 283.969 216.687C283.555 216.278 282.935 216.074 282.111 216.074C281.253 216.074 280.577 216.264 280.083 216.645C279.594 217.02 279.256 217.437 279.069 217.898L276.674 217.352C276.958 216.557 277.373 215.915 277.918 215.426C278.469 214.932 279.103 214.574 279.819 214.352C280.535 214.125 281.288 214.011 282.077 214.011C282.6 214.011 283.154 214.074 283.739 214.199C284.33 214.318 284.881 214.54 285.393 214.864C285.91 215.187 286.333 215.651 286.663 216.253C286.992 216.849 287.157 217.625 287.157 218.58V227.273H284.668V225.483H284.566C284.401 225.812 284.154 226.136 283.825 226.455C283.495 226.773 283.072 227.037 282.555 227.247C282.038 227.457 281.418 227.562 280.697 227.562ZM281.251 225.517C281.955 225.517 282.557 225.378 283.057 225.099C283.563 224.821 283.947 224.457 284.208 224.009C284.475 223.554 284.609 223.068 284.609 222.551V220.864C284.518 220.955 284.342 221.04 284.08 221.119C283.825 221.193 283.532 221.259 283.202 221.315C282.873 221.366 282.552 221.415 282.239 221.46C281.927 221.5 281.665 221.534 281.455 221.562C280.961 221.625 280.509 221.73 280.1 221.878C279.697 222.026 279.373 222.239 279.128 222.517C278.89 222.79 278.771 223.153 278.771 223.608C278.771 224.239 279.003 224.716 279.469 225.04C279.935 225.358 280.529 225.517 281.251 225.517ZM290.095 227.273V214.182H292.558V216.261H292.694C292.933 215.557 293.354 215.003 293.956 214.599C294.564 214.19 295.251 213.986 296.018 213.986C296.177 213.986 296.365 213.991 296.581 214.003C296.802 214.014 296.976 214.028 297.101 214.045V216.483C296.998 216.455 296.817 216.423 296.555 216.389C296.294 216.349 296.033 216.33 295.771 216.33C295.169 216.33 294.632 216.457 294.16 216.713C293.695 216.963 293.325 217.312 293.052 217.761C292.78 218.205 292.643 218.71 292.643 219.278V227.273H290.095ZM305.734 214.182V216.227H298.584V214.182H305.734ZM300.501 211.045H303.05V223.429C303.05 223.923 303.123 224.295 303.271 224.545C303.419 224.79 303.609 224.957 303.842 225.048C304.081 225.134 304.339 225.176 304.618 225.176C304.822 225.176 305.001 225.162 305.155 225.134C305.308 225.105 305.427 225.082 305.513 225.065L305.973 227.17C305.825 227.227 305.615 227.284 305.342 227.341C305.069 227.403 304.729 227.437 304.319 227.443C303.649 227.455 303.024 227.335 302.444 227.085C301.865 226.835 301.396 226.449 301.038 225.926C300.68 225.403 300.501 224.747 300.501 223.957V211.045ZM314.734 218.545C314.734 216.409 315.015 214.443 315.578 212.648C316.14 210.852 316.961 209.196 318.041 207.679H320.376C319.956 208.241 319.564 208.932 319.2 209.75C318.836 210.568 318.518 211.466 318.246 212.443C317.973 213.415 317.76 214.423 317.606 215.469C317.453 216.509 317.376 217.534 317.376 218.545C317.376 219.898 317.51 221.267 317.777 222.653C318.044 224.04 318.405 225.327 318.859 226.514C319.314 227.702 319.819 228.67 320.376 229.42H318.041C316.961 227.903 316.14 226.247 315.578 224.452C315.015 222.656 314.734 220.687 314.734 218.545ZM337.309 215.494H334.65C334.547 214.926 334.357 214.426 334.079 213.994C333.8 213.562 333.459 213.196 333.056 212.895C332.652 212.594 332.201 212.366 331.701 212.213C331.206 212.06 330.681 211.983 330.124 211.983C329.118 211.983 328.218 212.236 327.422 212.741C326.633 213.247 326.008 213.989 325.547 214.966C325.093 215.943 324.866 217.136 324.866 218.545C324.866 219.966 325.093 221.165 325.547 222.142C326.008 223.119 326.635 223.858 327.431 224.358C328.226 224.858 329.121 225.108 330.116 225.108C330.667 225.108 331.189 225.034 331.684 224.886C332.184 224.733 332.635 224.509 333.039 224.213C333.442 223.918 333.783 223.557 334.062 223.131C334.346 222.699 334.542 222.205 334.65 221.648L337.309 221.656C337.167 222.514 336.891 223.304 336.482 224.026C336.079 224.741 335.559 225.361 334.922 225.884C334.292 226.401 333.57 226.801 332.758 227.085C331.945 227.369 331.059 227.511 330.098 227.511C328.587 227.511 327.241 227.153 326.059 226.437C324.877 225.716 323.945 224.685 323.263 223.344C322.587 222.003 322.249 220.403 322.249 218.545C322.249 216.682 322.59 215.082 323.272 213.747C323.954 212.406 324.885 211.378 326.067 210.662C327.249 209.94 328.593 209.58 330.098 209.58C331.025 209.58 331.888 209.713 332.689 209.98C333.496 210.241 334.221 210.628 334.863 211.139C335.505 211.645 336.036 212.264 336.456 212.997C336.877 213.724 337.161 214.557 337.309 215.494ZM343.609 227.562C342.78 227.562 342.03 227.409 341.359 227.102C340.689 226.79 340.157 226.338 339.765 225.747C339.379 225.156 339.186 224.432 339.186 223.574C339.186 222.835 339.328 222.227 339.612 221.75C339.896 221.273 340.28 220.895 340.763 220.616C341.245 220.338 341.785 220.128 342.382 219.986C342.978 219.844 343.586 219.736 344.206 219.662C344.99 219.571 345.626 219.497 346.115 219.44C346.603 219.378 346.959 219.278 347.18 219.142C347.402 219.006 347.513 218.784 347.513 218.477V218.418C347.513 217.673 347.302 217.097 346.882 216.687C346.467 216.278 345.848 216.074 345.024 216.074C344.166 216.074 343.49 216.264 342.995 216.645C342.507 217.02 342.169 217.437 341.981 217.898L339.586 217.352C339.87 216.557 340.285 215.915 340.831 215.426C341.382 214.932 342.015 214.574 342.731 214.352C343.447 214.125 344.2 214.011 344.99 214.011C345.513 214.011 346.066 214.074 346.652 214.199C347.243 214.318 347.794 214.54 348.305 214.864C348.822 215.187 349.245 215.651 349.575 216.253C349.905 216.849 350.069 217.625 350.069 218.58V227.273H347.581V225.483H347.478C347.314 225.812 347.066 226.136 346.737 226.455C346.407 226.773 345.984 227.037 345.467 227.247C344.95 227.457 344.331 227.562 343.609 227.562ZM344.163 225.517C344.868 225.517 345.47 225.378 345.97 225.099C346.476 224.821 346.859 224.457 347.12 224.009C347.388 223.554 347.521 223.068 347.521 222.551V220.864C347.43 220.955 347.254 221.04 346.993 221.119C346.737 221.193 346.444 221.259 346.115 221.315C345.785 221.366 345.464 221.415 345.152 221.46C344.839 221.5 344.578 221.534 344.368 221.562C343.873 221.625 343.422 221.73 343.013 221.878C342.609 222.026 342.285 222.239 342.041 222.517C341.802 222.79 341.683 223.153 341.683 223.608C341.683 224.239 341.916 224.716 342.382 225.04C342.848 225.358 343.441 225.517 344.163 225.517ZM355.556 219.5V227.273H353.008V214.182H355.454V216.312H355.615C355.917 215.619 356.388 215.062 357.03 214.642C357.678 214.222 358.493 214.011 359.476 214.011C360.368 214.011 361.15 214.199 361.82 214.574C362.49 214.943 363.01 215.494 363.38 216.227C363.749 216.96 363.934 217.866 363.934 218.946V227.273H361.385V219.253C361.385 218.304 361.138 217.562 360.644 217.028C360.15 216.489 359.471 216.219 358.607 216.219C358.016 216.219 357.49 216.347 357.03 216.602C356.576 216.858 356.215 217.233 355.948 217.727C355.686 218.216 355.556 218.807 355.556 219.5ZM377.625 214.182L372.878 227.273H370.151L365.395 214.182H368.131L371.446 224.256H371.583L374.89 214.182H377.625ZM382.999 227.562C382.169 227.562 381.419 227.409 380.749 227.102C380.078 226.79 379.547 226.338 379.155 225.747C378.769 225.156 378.576 224.432 378.576 223.574C378.576 222.835 378.718 222.227 379.002 221.75C379.286 221.273 379.669 220.895 380.152 220.616C380.635 220.338 381.175 220.128 381.772 219.986C382.368 219.844 382.976 219.736 383.595 219.662C384.38 219.571 385.016 219.497 385.505 219.44C385.993 219.378 386.348 219.278 386.57 219.142C386.792 219.006 386.902 218.784 386.902 218.477V218.418C386.902 217.673 386.692 217.097 386.272 216.687C385.857 216.278 385.238 216.074 384.414 216.074C383.556 216.074 382.88 216.264 382.385 216.645C381.897 217.02 381.559 217.437 381.371 217.898L378.976 217.352C379.26 216.557 379.675 215.915 380.22 215.426C380.772 214.932 381.405 214.574 382.121 214.352C382.837 214.125 383.59 214.011 384.38 214.011C384.902 214.011 385.456 214.074 386.042 214.199C386.632 214.318 387.184 214.54 387.695 214.864C388.212 215.187 388.635 215.651 388.965 216.253C389.294 216.849 389.459 217.625 389.459 218.58V227.273H386.97V225.483H386.868C386.703 225.812 386.456 226.136 386.127 226.455C385.797 226.773 385.374 227.037 384.857 227.247C384.34 227.457 383.72 227.562 382.999 227.562ZM383.553 225.517C384.257 225.517 384.86 225.378 385.36 225.099C385.865 224.821 386.249 224.457 386.51 224.009C386.777 223.554 386.911 223.068 386.911 222.551V220.864C386.82 220.955 386.644 221.04 386.382 221.119C386.127 221.193 385.834 221.259 385.505 221.315C385.175 221.366 384.854 221.415 384.542 221.46C384.229 221.5 383.968 221.534 383.757 221.562C383.263 221.625 382.811 221.73 382.402 221.878C381.999 222.026 381.675 222.239 381.431 222.517C381.192 222.79 381.073 223.153 381.073 223.608C381.073 224.239 381.306 224.716 381.772 225.04C382.238 225.358 382.831 225.517 383.553 225.517ZM402.207 217.378L399.897 217.787C399.801 217.491 399.647 217.21 399.437 216.943C399.233 216.676 398.954 216.457 398.602 216.287C398.25 216.116 397.809 216.031 397.281 216.031C396.559 216.031 395.957 216.193 395.474 216.517C394.991 216.835 394.75 217.247 394.75 217.753C394.75 218.19 394.912 218.543 395.235 218.81C395.559 219.077 396.082 219.295 396.804 219.466L398.883 219.943C400.088 220.222 400.985 220.651 401.576 221.23C402.167 221.81 402.463 222.562 402.463 223.489C402.463 224.273 402.235 224.972 401.781 225.585C401.332 226.193 400.704 226.67 399.897 227.017C399.096 227.364 398.167 227.537 397.11 227.537C395.644 227.537 394.448 227.224 393.522 226.599C392.596 225.969 392.028 225.074 391.818 223.915L394.281 223.54C394.434 224.182 394.75 224.668 395.227 224.997C395.704 225.321 396.326 225.483 397.093 225.483C397.929 225.483 398.596 225.31 399.096 224.963C399.596 224.611 399.846 224.182 399.846 223.676C399.846 223.267 399.693 222.923 399.386 222.645C399.085 222.366 398.622 222.156 397.997 222.014L395.781 221.528C394.559 221.25 393.656 220.807 393.071 220.199C392.491 219.591 392.201 218.821 392.201 217.889C392.201 217.116 392.417 216.44 392.849 215.861C393.281 215.281 393.877 214.83 394.639 214.506C395.4 214.176 396.272 214.011 397.255 214.011C398.67 214.011 399.784 214.318 400.596 214.932C401.409 215.54 401.946 216.355 402.207 217.378ZM409.709 220.028C409.709 222.17 409.428 224.139 408.865 225.935C408.303 227.73 407.482 229.386 406.402 230.903H404.067C404.487 230.341 404.88 229.651 405.243 228.832C405.607 228.014 405.925 227.119 406.198 226.148C406.47 225.17 406.684 224.159 406.837 223.114C406.99 222.068 407.067 221.04 407.067 220.028C407.067 218.682 406.934 217.315 406.666 215.929C406.399 214.543 406.039 213.256 405.584 212.068C405.13 210.881 404.624 209.912 404.067 209.162H406.402C407.482 210.679 408.303 212.335 408.865 214.131C409.428 215.926 409.709 217.892 409.709 220.028Z" fill="white"/>
<path d="M101.392 338.273H98.5966L104.878 320.818H107.92L114.202 338.273H111.406L106.472 323.989H106.335L101.392 338.273ZM101.861 331.437H110.929V333.653H101.861V331.437ZM118.073 325.182L120.962 330.278L123.877 325.182H126.664L122.582 331.727L126.698 338.273H123.911L120.962 333.381L118.022 338.273H115.227L119.3 331.727L115.278 325.182H118.073ZM133.951 338.537C132.661 338.537 131.55 338.261 130.619 337.71C129.692 337.153 128.976 336.372 128.471 335.366C127.971 334.355 127.721 333.17 127.721 331.812C127.721 330.472 127.971 329.29 128.471 328.267C128.976 327.244 129.681 326.446 130.584 325.872C131.494 325.298 132.556 325.011 133.772 325.011C134.511 325.011 135.226 325.134 135.92 325.378C136.613 325.622 137.235 326.006 137.786 326.528C138.337 327.051 138.772 327.73 139.09 328.565C139.408 329.395 139.567 330.403 139.567 331.591V332.494H129.161V330.585H137.07C137.07 329.915 136.934 329.321 136.661 328.804C136.388 328.281 136.005 327.869 135.511 327.568C135.022 327.267 134.448 327.116 133.789 327.116C133.073 327.116 132.448 327.293 131.914 327.645C131.386 327.991 130.976 328.446 130.687 329.009C130.403 329.565 130.261 330.17 130.261 330.824V332.315C130.261 333.19 130.414 333.935 130.721 334.548C131.033 335.162 131.468 335.631 132.025 335.955C132.582 336.273 133.232 336.432 133.976 336.432C134.459 336.432 134.9 336.364 135.298 336.227C135.695 336.085 136.039 335.875 136.329 335.597C136.619 335.318 136.84 334.974 136.994 334.565L139.405 335C139.212 335.71 138.866 336.332 138.366 336.866C137.871 337.395 137.249 337.807 136.499 338.102C135.755 338.392 134.905 338.537 133.951 338.537ZM151.748 328.378L149.439 328.787C149.342 328.491 149.189 328.21 148.979 327.943C148.774 327.676 148.496 327.457 148.143 327.287C147.791 327.116 147.351 327.031 146.822 327.031C146.101 327.031 145.498 327.193 145.016 327.517C144.533 327.835 144.291 328.247 144.291 328.753C144.291 329.19 144.453 329.543 144.777 329.81C145.101 330.077 145.623 330.295 146.345 330.466L148.425 330.943C149.629 331.222 150.527 331.651 151.118 332.23C151.709 332.81 152.004 333.562 152.004 334.489C152.004 335.273 151.777 335.972 151.322 336.585C150.873 337.193 150.246 337.67 149.439 338.017C148.638 338.364 147.709 338.537 146.652 338.537C145.186 338.537 143.99 338.224 143.064 337.599C142.138 336.969 141.569 336.074 141.359 334.915L143.822 334.54C143.976 335.182 144.291 335.668 144.768 335.997C145.246 336.321 145.868 336.483 146.635 336.483C147.47 336.483 148.138 336.31 148.638 335.963C149.138 335.611 149.388 335.182 149.388 334.676C149.388 334.267 149.234 333.923 148.927 333.645C148.626 333.366 148.163 333.156 147.538 333.014L145.322 332.528C144.101 332.25 143.197 331.807 142.612 331.199C142.033 330.591 141.743 329.821 141.743 328.889C141.743 328.116 141.959 327.44 142.391 326.861C142.822 326.281 143.419 325.83 144.18 325.506C144.942 325.176 145.814 325.011 146.797 325.011C148.212 325.011 149.325 325.318 150.138 325.932C150.95 326.54 151.487 327.355 151.748 328.378ZM160.987 329.545C160.987 327.409 161.268 325.443 161.831 323.648C162.393 321.852 163.214 320.196 164.294 318.679H166.629C166.209 319.241 165.817 319.932 165.453 320.75C165.089 321.568 164.771 322.466 164.498 323.443C164.226 324.415 164.013 325.423 163.859 326.469C163.706 327.509 163.629 328.534 163.629 329.545C163.629 330.898 163.763 332.267 164.03 333.653C164.297 335.04 164.658 336.327 165.112 337.514C165.567 338.702 166.072 339.67 166.629 340.42H164.294C163.214 338.903 162.393 337.247 161.831 335.452C161.268 333.656 160.987 331.687 160.987 329.545ZM178.584 325.403C178.493 324.597 178.118 323.972 177.459 323.528C176.8 323.08 175.971 322.855 174.971 322.855C174.255 322.855 173.635 322.969 173.113 323.196C172.59 323.418 172.184 323.724 171.894 324.116C171.61 324.503 171.468 324.943 171.468 325.437C171.468 325.852 171.564 326.21 171.758 326.511C171.956 326.812 172.215 327.065 172.533 327.27C172.857 327.469 173.204 327.636 173.573 327.773C173.942 327.903 174.297 328.011 174.638 328.097L176.343 328.54C176.9 328.676 177.471 328.861 178.056 329.094C178.641 329.327 179.184 329.634 179.684 330.014C180.184 330.395 180.587 330.866 180.894 331.429C181.206 331.991 181.363 332.665 181.363 333.449C181.363 334.437 181.107 335.315 180.596 336.082C180.09 336.849 179.354 337.455 178.388 337.898C177.428 338.341 176.266 338.562 174.902 338.562C173.596 338.562 172.465 338.355 171.51 337.94C170.556 337.526 169.809 336.937 169.269 336.176C168.729 335.409 168.431 334.5 168.374 333.449H171.016C171.067 334.08 171.272 334.605 171.63 335.026C171.993 335.44 172.456 335.75 173.019 335.955C173.587 336.153 174.209 336.253 174.885 336.253C175.63 336.253 176.292 336.136 176.871 335.903C177.456 335.665 177.917 335.335 178.252 334.915C178.587 334.489 178.755 333.991 178.755 333.423C178.755 332.906 178.607 332.483 178.312 332.153C178.022 331.824 177.627 331.551 177.127 331.335C176.633 331.119 176.073 330.929 175.448 330.764L173.385 330.202C171.988 329.821 170.88 329.261 170.062 328.523C169.249 327.784 168.843 326.807 168.843 325.591C168.843 324.585 169.116 323.707 169.661 322.957C170.206 322.207 170.945 321.625 171.877 321.21C172.809 320.79 173.86 320.58 175.03 320.58C176.212 320.58 177.255 320.787 178.158 321.202C179.067 321.616 179.783 322.187 180.306 322.915C180.829 323.636 181.101 324.466 181.124 325.403H178.584ZM185.579 320.818L190.437 335.034H190.633L195.491 320.818H198.338L192.057 338.273H189.014L182.733 320.818H185.579ZM211.348 326.332C211.183 325.815 210.961 325.352 210.683 324.943C210.41 324.528 210.084 324.176 209.703 323.886C209.322 323.591 208.888 323.366 208.399 323.213C207.916 323.06 207.385 322.983 206.805 322.983C205.822 322.983 204.936 323.236 204.146 323.741C203.356 324.247 202.731 324.989 202.271 325.966C201.816 326.937 201.589 328.128 201.589 329.537C201.589 330.952 201.819 332.148 202.28 333.125C202.74 334.102 203.37 334.844 204.172 335.349C204.973 335.855 205.885 336.108 206.907 336.108C207.856 336.108 208.683 335.915 209.388 335.528C210.098 335.142 210.646 334.597 211.032 333.892C211.424 333.182 211.62 332.347 211.62 331.386L212.302 331.514H207.308V329.341H214.169V331.327C214.169 332.793 213.856 334.065 213.231 335.145C212.612 336.219 211.754 337.048 210.657 337.634C209.566 338.219 208.316 338.511 206.907 338.511C205.328 338.511 203.941 338.148 202.748 337.42C201.561 336.693 200.635 335.662 199.97 334.327C199.305 332.986 198.973 331.395 198.973 329.554C198.973 328.162 199.166 326.912 199.552 325.804C199.939 324.696 200.481 323.756 201.18 322.983C201.885 322.205 202.711 321.611 203.66 321.202C204.615 320.787 205.657 320.58 206.788 320.58C207.731 320.58 208.609 320.719 209.422 320.997C210.24 321.276 210.967 321.67 211.603 322.182C212.245 322.693 212.777 323.301 213.197 324.006C213.618 324.705 213.902 325.48 214.049 326.332H211.348ZM221.752 329.545C221.752 331.687 221.471 333.656 220.908 335.452C220.346 337.247 219.525 338.903 218.445 340.42H216.11C216.53 339.858 216.922 339.168 217.286 338.349C217.65 337.531 217.968 336.636 218.24 335.665C218.513 334.687 218.726 333.676 218.88 332.631C219.033 331.585 219.11 330.557 219.11 329.545C219.11 328.199 218.976 326.832 218.709 325.446C218.442 324.06 218.081 322.773 217.627 321.585C217.172 320.398 216.667 319.429 216.11 318.679H218.445C219.525 320.196 220.346 321.852 220.908 323.648C221.471 325.443 221.752 327.409 221.752 329.545Z" fill="white"/>
</svg>
